<?xml version="1.0" standalone="no"?>
<!DOCTYPE svg PUBLIC "-//W3C//DTD SVG 20010904//EN"
 "http://www.w3.org/TR/2001/REC-SVG-20010904/DTD/svg10.dtd">
<svg version="1.0" xmlns="http://www.w3.org/2000/svg"
 width="64.000000pt" height="64.000000pt" viewBox="0 0 64.000000 64.000000"
 preserveAspectRatio="xMidYMid meet">

<g transform="translate(0.000000,64.000000) scale(0.100000,-0.100000)"
fill="#000000" stroke="none">
<path d="M105 533 c-11 -11 -15 -25 -10 -42 3 -14 11 -48 16 -76 14 -68 50
-127 91 -149 19 -10 41 -30 49 -44 14 -26 13 -27 -25 -47 -45 -23 -62 -45 -53
-69 5 -14 26 -16 147 -16 121 0 142 2 147 16 9 25 -8 47 -55 69 -23 11 -41 22
-42 25 0 3 10 15 22 27 118 110 115 105 132 178 10 39 20 79 23 91 3 12 -2 28
-12 37 -14 15 -43 17 -215 17 -172 0 -201 -2 -215 -17z m420 -28 c0 -19 -8
-20 -207 -23 -197 -2 -208 -1 -208 16 0 10 3 22 7 26 4 3 97 5 207 4 193 -3
201 -4 201 -23z m-25 -80 c0 -20 -6 -50 -14 -68 -14 -36 -69 -87 -92 -87 -8 0
-14 -6 -14 -14 0 -7 -7 -19 -15 -26 -28 -23 -17 -47 32 -71 82 -41 70 -49 -77
-49 -147 0 -159 8 -77 49 48 24 63 55 32 67 -8 4 -15 12 -15 19 0 8 -17 24
-39 36 -44 25 -77 76 -87 137 l-7 42 187 0 186 0 0 -35z"/>
<path d="M311 407 c-6 -16 -20 -31 -31 -34 -26 -7 -26 -19 1 -26 11 -3 23 -15
26 -26 7 -27 19 -27 26 -1 3 11 18 25 34 31 l28 11 -27 10 c-15 5 -31 21 -36
36 l-10 27 -11 -28z m19 -47 c0 -5 -2 -10 -4 -10 -3 0 -8 5 -11 10 -3 6 -1 10
4 10 6 0 11 -4 11 -10z"/>
</g>
</svg>
