<?xml version="1.0" standalone="no"?>
<!DOCTYPE svg PUBLIC "-//W3C//DTD SVG 20010904//EN"
 "http://www.w3.org/TR/2001/REC-SVG-20010904/DTD/svg10.dtd">
<svg version="1.0" xmlns="http://www.w3.org/2000/svg"
 width="64.000000pt" height="64.000000pt" viewBox="0 0 64.000000 64.000000"
 preserveAspectRatio="xMidYMid meet">

<g transform="translate(0.000000,64.000000) scale(0.100000,-0.100000)"
fill="#000000" stroke="none">
<path d="M358 553 c-14 -16 -31 -39 -38 -51 l-12 -24 -15 22 c-15 22 -85 59
-111 60 -7 0 -26 -15 -43 -32 -35 -39 -38 -77 -9 -133 11 -21 19 -39 17 -40
-86 -36 -116 -69 -101 -113 12 -35 67 -62 127 -62 34 0 53 -6 67 -20 22 -22
46 -25 86 -10 36 14 39 9 15 -36 -15 -28 -18 -41 -9 -51 17 -21 27 -16 75 32
27 28 53 45 67 45 32 0 73 34 97 82 25 48 19 68 -19 68 -29 0 -29 1 -25 43 5
38 2 46 -20 64 -22 17 -25 25 -20 61 8 61 -2 87 -41 106 -46 22 -58 20 -88
-11z m95 -21 c22 -20 22 -64 -2 -111 l-20 -38 25 5 c57 11 74 -55 25 -102 -18
-17 -40 -28 -60 -28 -25 -1 -31 -5 -31 -23 0 -29 -25 -50 -77 -66 -49 -14 -78
0 -68 32 6 17 3 18 -20 9 -64 -25 -160 5 -160 50 0 30 49 66 104 75 l38 6 -33
33 c-42 42 -53 95 -27 130 10 14 24 28 32 31 24 10 93 -38 114 -79 l20 -38 18
47 c34 89 73 110 122 67z m117 -267 c0 -9 -32 -58 -54 -82 -13 -15 -31 -23
-52 -23 -18 0 -38 -6 -43 -12 -6 -7 -22 -28 -37 -45 -34 -43 -51 -42 -25 1 12
18 21 44 21 57 1 13 7 35 15 49 14 25 15 25 21 3 6 -21 7 -20 33 9 17 19 42
33 67 38 54 11 54 11 54 5z"/>
<path d="M318 349 c-19 -11 -24 -34 -9 -43 5 -3 14 8 20 24 5 17 9 30 8 30 -1
0 -10 -5 -19 -11z"/>
</g>
</svg>
