<?xml version="1.0" standalone="no"?>
<!DOCTYPE svg PUBLIC "-//W3C//DTD SVG 20010904//EN"
 "http://www.w3.org/TR/2001/REC-SVG-20010904/DTD/svg10.dtd">
<svg version="1.0" xmlns="http://www.w3.org/2000/svg"
 width="64.000000pt" height="64.000000pt" viewBox="0 0 64.000000 64.000000"
 preserveAspectRatio="xMidYMid meet">

<g transform="translate(0.000000,64.000000) scale(0.100000,-0.100000)"
fill="#000000" stroke="none">
<path d="M142 568 c-18 -18 -14 -55 8 -71 11 -8 17 -17 13 -20 -14 -14 29 -96
62 -119 19 -12 35 -29 35 -37 0 -8 -18 -30 -39 -50 -28 -26 -43 -51 -51 -84
-7 -25 -18 -52 -26 -58 -17 -14 -18 -51 -2 -67 17 -17 339 -17 356 0 16 16 15
53 -2 67 -8 6 -19 33 -26 58 -8 33 -23 58 -51 84 -21 20 -39 42 -39 50 0 8 16
25 35 37 33 23 76 105 62 119 -4 3 2 12 13 20 22 16 26 53 8 71 -17 17 -339
17 -356 0z m346 -30 c-3 -23 -5 -23 -168 -23 -163 0 -165 0 -168 23 l-3 22
171 0 171 0 -3 -22z m-36 -54 c15 -14 -16 -73 -57 -111 -25 -23 -45 -49 -45
-57 0 -8 15 -26 33 -41 43 -37 65 -71 72 -117 4 -24 12 -38 22 -38 9 0 13 -8
11 -22 -3 -23 -5 -23 -168 -23 -163 0 -165 0 -168 22 -2 15 2 23 11 23 10 0
18 14 22 38 7 46 29 80 73 117 17 15 32 33 32 41 0 8 -20 34 -45 57 -41 38
-72 97 -57 111 7 8 257 8 264 0z"/>
<path d="M270 392 c0 -5 9 -17 20 -27 16 -14 20 -31 20 -81 0 -38 -5 -67 -12
-73 -7 -6 -28 -22 -45 -37 -57 -45 -46 -54 67 -54 113 0 124 9 68 54 -18 15
-39 31 -45 37 -8 6 -13 35 -13 73 0 50 4 67 20 81 31 28 24 35 -30 35 -27 0
-50 -4 -50 -8z m90 -225 l35 -22 -37 -3 c-21 -2 -55 -2 -75 0 l-38 3 35 22
c19 13 37 23 40 23 3 0 21 -10 40 -23z"/>
</g>
</svg>
