<?xml version="1.0" standalone="no"?>
<!DOCTYPE svg PUBLIC "-//W3C//DTD SVG 20010904//EN"
 "http://www.w3.org/TR/2001/REC-SVG-20010904/DTD/svg10.dtd">
<svg version="1.0" xmlns="http://www.w3.org/2000/svg"
 width="64.000000pt" height="64.000000pt" viewBox="0 0 64.000000 64.000000"
 preserveAspectRatio="xMidYMid meet">

<g transform="translate(0.000000,64.000000) scale(0.100000,-0.100000)"
fill="#000000" stroke="none">
<path d="M280 540 c-15 -22 -20 -39 -16 -56 7 -28 -16 -74 -57 -113 -24 -22
-26 -22 -51 -6 -14 10 -32 29 -39 43 -14 31 -61 52 -79 34 -8 -8 -1 -37 27
-114 61 -164 69 -176 129 -203 112 -50 123 -50 214 -15 52 20 88 40 98 55 19
29 104 251 104 271 0 8 -10 14 -23 14 -28 0 -67 -26 -67 -45 0 -7 -14 -23 -31
-35 l-30 -22 -25 23 c-42 39 -65 85 -58 113 7 31 -28 86 -56 86 -10 0 -28 -14
-40 -30z m64 -15 c13 -20 14 -30 6 -46 -7 -12 -8 -25 -3 -32 72 -97 90 -117
105 -117 28 0 97 50 92 65 -5 12 33 42 41 33 3 -4 -76 -214 -93 -245 -8 -14
-41 -33 -92 -52 l-80 -31 -80 31 c-51 19 -84 38 -92 52 -17 31 -96 241 -93
245 8 9 46 -21 41 -33 -5 -15 64 -65 92 -65 15 0 33 20 105 117 5 7 4 20 -3
32 -8 16 -7 26 6 46 9 14 20 25 24 25 4 0 15 -11 24 -25z"/>
<path d="M312 297 c-7 -15 -24 -32 -39 -38 l-28 -11 31 -13 c17 -7 34 -23 38
-36 l7 -24 10 27 c6 15 22 31 37 36 l27 9 -30 14 c-16 8 -32 25 -36 39 l-6 25
-11 -28z m18 -47 c0 -5 -5 -10 -11 -10 -5 0 -7 5 -4 10 3 6 8 10 11 10 2 0 4
-4 4 -10z"/>
</g>
</svg>
