<?xml version="1.0" standalone="no"?>
<!DOCTYPE svg PUBLIC "-//W3C//DTD SVG 20010904//EN"
 "http://www.w3.org/TR/2001/REC-SVG-20010904/DTD/svg10.dtd">
<svg version="1.0" xmlns="http://www.w3.org/2000/svg"
 width="64.000000pt" height="64.000000pt" viewBox="0 0 64.000000 64.000000"
 preserveAspectRatio="xMidYMid meet">

<g transform="translate(0.000000,64.000000) scale(0.100000,-0.100000)"
fill="#000000" stroke="none">
<path d="M441 564 c-75 -26 -139 -75 -198 -148 -18 -23 -41 -50 -52 -61 -10
-11 -24 -38 -31 -60 -7 -22 -20 -45 -28 -51 -8 -6 -18 -31 -22 -55 -4 -24 -14
-59 -21 -77 -13 -30 -12 -35 4 -47 25 -18 44 -9 63 26 8 16 22 29 30 29 9 0
32 14 51 30 18 17 42 30 52 30 21 0 114 72 176 137 53 54 105 155 105 203 0
30 -5 39 -25 48 -33 15 -50 15 -104 -4z m109 -43 c0 -30 -44 -123 -81 -169
-43 -56 -170 -150 -211 -156 -22 -4 -36 -11 -33 -16 3 -6 -1 -10 -9 -10 -9 0
-16 -5 -16 -10 0 -6 -8 -10 -17 -8 -11 2 -24 -10 -38 -34 -11 -21 -26 -38 -32
-38 -18 0 -16 10 7 48 11 18 18 37 15 42 -3 5 -1 12 5 15 8 5 8 11 0 20 -8 10
-6 15 8 19 13 4 24 22 30 49 6 23 24 57 39 76 116 141 199 200 286 201 45 0
47 -1 47 -29z"/>
<path d="M279 338 c-63 -75 -79 -101 -30 -48 45 48 85 100 78 100 -3 0 -24
-24 -48 -52z"/>
</g>
</svg>
